# xmcd
#
# Track frame offsets: 
#        150
#        13544
#        32053
#        50902
#        69840
#        89044
#        108437
#        125603
#        146267
#        170211
#        186510
#        201266
#        215167
#        229961
#
# Disc length: 3290 seconds
#
# Revision: 0
# Processed by: cddbd v1.5.1PL2 Copyright (c) Steve Scherf et al.
# Submitted via: ExactAudioCopy v0.95b3
#
DISCID=db0cd80e
DTITLE=Chicago Bob Nelson - Flyin' Too High
DYEAR=2006
DGENRE=Blues
TTITLE0=Taking Care Of Business
TTITLE1=That's Why I Love You
TTITLE2=Flyin' Too High
TTITLE3=My Bleeding Heart
TTITLE4=Party After Hours
TTITLE5=Retirement Plan
TTITLE6=Howlin' For My Darlin'
TTITLE7=It's Hard Goin' Up
TTITLE8=The Blues Never Die
TTITLE9=Popcorn Man
TTITLE10=Wish I Had Someone To Love
TTITLE11=I'm Leavin'
TTITLE12=Shake For Me
TTITLE13=Christmas Tears
EXTD=
EXTT0=
EXTT1=
EXTT2=
EXTT3=
EXTT4=
EXTT5=
EXTT6=
EXTT7=
EXTT8=
EXTT9=
EXTT10=
EXTT11=
EXTT12=
EXTT13=
PLAYORDER=
